<?xml version="1.0" encoding="utf-8"?>
<!-- Generator: Adobe Illustrator 17.1.0, SVG Export Plug-In . SVG Version: 6.00 Build 0)  -->
<!DOCTYPE svg PUBLIC "-//W3C//DTD SVG 1.1//EN" "http://www.w3.org/Graphics/SVG/1.1/DTD/svg11.dtd">
<svg version="1.1" id="Layer_1" xmlns="http://www.w3.org/2000/svg" xmlns:xlink="http://www.w3.org/1999/xlink" x="0px" y="0px"
	 viewBox="0 0 300 300" enable-background="new 0 0 300 300" xml:space="preserve">
<g>
	<g>
		<path fill="#E6E6E6" d="M58.3,151.7l0.3,4.8c-1.2,2-3.6,3.7-7.8,3.7c-6.8,0-11.2-3.8-11.2-10.1c0-6.2,4.3-10,11.3-10
			c2.9,0,5.3,0.7,6.9,1.5l0.1,4.7h-0.2c-1-3.6-3.4-5.1-6.4-5.1c-4.4,0-7.1,3.4-7.1,8.8c0,5.5,2.6,8.9,6.7,9c4.2,0,6.4-1.9,7.3-7.3
			L58.3,151.7z"/>
		<path fill="#E6E6E6" d="M76,140.4c3.3,0,6.6,1.4,6.6,5.2c0,2.3-1.4,4.9-4.5,5.2c1.2,0.4,2.2,1.5,2.8,2.4c0.1,0.1,1.7,2.8,2.8,4.1
			c1.2,1.5,2,2.1,3.4,2.1v0.3h-2.7c-3,0-5.1-0.7-6.5-2.9c-0.7-1.2-2-3.9-2.3-4.7c-0.5-1.2-1.2-1.7-1.9-1.9V150h0.8
			c1.5,0,3-0.8,3.5-3.2c0.1-0.3,0.1-0.8,0.1-1.3c-0.1-2.6-1.4-3.8-3.3-3.9c-0.7,0-1.7,0-2.1,0v16.1c0,1,0.8,1.7,1.8,1.7H75l0,0.3
			h-8.4l0-0.3h0.3c1,0,1.7-0.8,1.8-1.7v-15.3c0-1-0.8-1.7-1.8-1.7h-0.4l0-0.3L76,140.4z"/>
		<path fill="#E6E6E6" d="M107.8,154.1l-1.3,5.6H92.3l0-0.3h0.3c1,0,1.8-0.8,1.8-1.7v-15.4c-0.1-0.9-0.8-1.6-1.8-1.6h-0.3l0-0.3
			h10.6c1.2,0,2.8-0.3,3.3-0.5v4.8l-0.3,0v-0.3c0-1.7-1-2.7-2.7-2.8h-4.6v8h3.7c1.4,0,2.3-1,2.3-2.4V147l0.3,0v6.4l-0.3,0v-0.2
			c0-1.3-1-2.3-2.3-2.4h-3.7v7.8h3.6c2.8,0,4.5-1.7,5.4-4.5H107.8z"/>
		<path fill="#E6E6E6" d="M132.1,157.9c0.6,1.1,1.5,1.6,2.4,1.6h0.2v0.3h-8.8v-0.3h0.2c0.7,0,1.5-0.6,1.1-1.7l-1.4-3.4h-6.5
			l-1.4,3.4c-0.5,1.1,0.3,1.7,1.1,1.7h0.2v0.3h-5.9v-0.3h0.2c0.8,0,1.7-0.5,2.3-1.6l6.4-14.4c0.2-0.4,1.3-2.8,1.4-3.6h0.2
			L132.1,157.9z M125.3,153.2l-2.7-6.8l-2.8,6.8H125.3z"/>
		<path fill="#E6E6E6" d="M154.4,144.6l-0.3,0v-0.3c0-1.6-1-2.7-2.6-2.7h-4.7v8h3.7c1.4,0,2.3-1,2.3-2.4V147l0.3,0v6.4l-0.3,0v-0.2
			c0-1.3-1-2.3-2.3-2.4h-3.7v6.9c0,1,0.8,1.7,1.8,1.7h0.3l0,0.3h-8.4l0-0.3h0.3c1,0,1.8-0.8,1.8-1.7v-15.4c-0.1-0.9-0.8-1.6-1.8-1.6
			h-0.3l0-0.3h10.6c1.2,0,2.8-0.3,3.3-0.5L154.4,144.6z"/>
		<path fill="#E6E6E6" d="M176.1,140.4c1.2,0,2.8-0.3,3.3-0.5v4.8l-0.3,0v-0.3c0-1.7-1.1-2.8-2.8-2.8h-3.7v16.2c0,1,0.8,1.7,1.8,1.7
			h0.3l0,0.3h-8.4l0-0.3h0.3c1,0,1.7-0.7,1.8-1.7v-16.2h-3.7c-1.7,0-2.8,1.1-2.8,2.8v0.3l-0.3,0v-4.8c0.5,0.2,2.1,0.5,3.3,0.5
			L176.1,140.4z"/>
		<path fill="#E6E6E6" d="M201.9,154.1l-1.3,5.6h-14.3l0-0.3h0.3c1,0,1.8-0.8,1.8-1.7v-15.4c-0.1-0.9-0.8-1.6-1.8-1.6h-0.3l0-0.3
			H197c1.2,0,2.8-0.3,3.3-0.5v4.8l-0.3,0v-0.3c0-1.7-1-2.7-2.7-2.8h-4.6v8h3.7c1.4,0,2.3-1,2.3-2.4V147l0.3,0v6.4l-0.3,0v-0.2
			c0-1.3-1-2.3-2.3-2.4h-3.7v7.8h3.6c2.8,0,4.5-1.7,5.4-4.5H201.9z"/>
		<path fill="#E6E6E6" d="M218.8,140.4c3.3,0,6.6,1.4,6.6,5.2c0,2.3-1.4,4.9-4.5,5.2c1.2,0.4,2.2,1.5,2.8,2.4
			c0.1,0.1,1.7,2.8,2.8,4.1c1.2,1.5,2,2.1,3.4,2.1v0.3h-2.7c-3,0-5.1-0.7-6.5-2.9c-0.7-1.2-2-3.9-2.3-4.7c-0.5-1.2-1.2-1.7-1.9-1.9
			V150h0.8c1.5,0,3-0.8,3.5-3.2c0.1-0.3,0.1-0.8,0.1-1.3c-0.1-2.6-1.4-3.8-3.3-3.9c-0.7,0-1.7,0-2.1,0v16.1c0,1,0.8,1.7,1.8,1.7h0.3
			l0,0.3h-8.4l0-0.3h0.3c1,0,1.7-0.8,1.8-1.7v-15.3c0-1-0.8-1.7-1.8-1.7h-0.4l0-0.3L218.8,140.4z"/>
		<path fill="#E6E6E6" d="M243.4,159.7H235l0-0.3h0.3c1,0,1.8-0.8,1.8-1.7v-15.3c0-1-0.8-1.7-1.8-1.7H235l0-0.3h8.4l0,0.3H243
			c-1,0-1.7,0.8-1.8,1.7v15.3c0,1,0.8,1.7,1.8,1.7h0.3L243.4,159.7z"/>
		<path fill="#E6E6E6" d="M273.1,140.4l0,0.3h-0.5c-0.9,0-1.7,0.7-1.7,1.6v14.3c0,2.1,0.3,3.5,0.3,3.5h-0.3L257,146.9v11
			c0,0.9,0.8,1.7,1.7,1.7h0.5l0,0.3h-8.4l0-0.3h0.5c0.9,0,1.7-0.7,1.7-1.7v-14.3c0-2.1-0.3-3.4-0.3-3.4h0.3l13.9,13.3v-10.9
			c0-0.9-0.8-1.7-1.7-1.7h-0.5l0-0.3L273.1,140.4z"/>
		<path fill="#E6E6E6" d="M297.3,157.9c0.6,1.1,1.5,1.6,2.4,1.6h0.2v0.3H291v-0.3h0.2c0.7,0,1.5-0.6,1.1-1.7l-1.4-3.4h-6.5l-1.4,3.4
			c-0.5,1.1,0.3,1.7,1.1,1.7h0.2v0.3h-5.9v-0.3h0.2c0.8,0,1.7-0.5,2.3-1.6l6.4-14.4c0.2-0.4,1.3-2.8,1.4-3.6h0.2L297.3,157.9z
			 M290.5,153.2l-2.7-6.8l-2.8,6.8H290.5z"/>
	</g>
	<path fill="#C69C6D" d="M296.2,182.2c-0.5,1.9-1,3.9-1.6,6c-3.4,11.8-9.1,25.8-18.9,39.8c-9.6,14-23.3,28-41,38.9
		c-8.8,5.4-18.7,10-29.1,13.5c-10.5,3.5-21.8,5.5-33.4,6.3c-2.9,0.2-5.8,0.2-8.8,0.3c-1.5,0-2.9-0.1-4.4-0.1l-2.2,0l-2.1-0.2
		c-1.5-0.1-3.1-0.2-4.7-0.3c-1.5-0.1-2.9-0.4-4.4-0.5c-2.9-0.3-5.8-0.9-8.8-1.4c-5.9-1.2-11.8-2.7-17.6-4.7
		c-2.9-0.9-5.7-2.2-8.6-3.2l-4.2-1.9c-1.4-0.6-2.8-1.3-4.2-2c-22.1-11-41.6-28.4-55.1-50c-6.7-10.8-12-22.5-15.6-34.7l-1.2-4.6
		c-0.4-1.5-0.7-3.1-1-4.7l-0.5-2.3l-0.4-2.4c-0.2-1.6-0.6-3.1-0.8-4.7c-0.4-3.2-0.8-6.3-1-9.5c-0.1-1.6-0.2-3.2-0.2-4.8l-0.1-4.5
		l0.1-5.3c0-0.8,0-1.8,0.1-2.6l0.2-2.3c0.1-1.5,0.2-3,0.4-4.6l0.6-4.7c1-6.3,2.3-12.6,4-18.7c3.6-12.3,8.9-24,15.6-34.7
		c13.5-21.5,33-38.9,55.1-49.9c11-5.5,22.7-9.5,34.5-11.8c3-0.5,5.9-1.1,8.9-1.4c1.5-0.2,3-0.4,4.4-0.5c1.5-0.1,3-0.2,4.4-0.3
		l2.1-0.2l2.3,0c1.5,0,3.1-0.1,4.6-0.1c2.9,0.1,5.7,0.1,8.6,0.3c11.6,0.8,22.8,2.9,33.4,6.3c10.5,3.5,20.3,8,29.1,13.5
		C252.4,44,266,58,275.7,72.1c9.8,14,15.4,28,18.9,39.8c0.5,1.6,0.9,3.2,1.3,4.7h0.3c-0.3-1.6-0.7-3.2-1.2-4.9
		c-1.5-6-3.7-12.5-6.6-19.3c-2.9-6.9-6.5-14.1-11.1-21.5c-9.1-14.6-22.1-29.8-39.5-42.4c-17.4-12.6-39.4-22.7-64.3-26.7
		c-3.1-0.5-6.4-0.8-9.6-1.2c-1.5-0.1-3.1-0.2-4.6-0.3L157,0.1L154.4,0c-1.6,0-3.2-0.1-4.9-0.1c-1.6,0-3.3,0.1-4.9,0.1
		c-3.3,0-6.6,0.4-9.9,0.6c-6.7,0.7-13.4,1.8-20.1,3.4c-3.4,0.7-6.6,1.8-10,2.7c-1.7,0.5-3.3,1.1-5,1.7c-1.7,0.6-3.3,1.2-4.9,1.9
		C81.6,15.6,69,22.8,57.5,31.8C46,40.9,35.6,51.7,27.1,64.1c-4.3,6.2-8.1,12.7-11.5,19.5c-3.4,6.8-6.1,13.9-8.5,21.2
		c-2.4,7.3-3.9,14.8-5.2,22.4c-0.5,3.8-1,7.6-1.3,11.6l-0.2,3c-0.1,1-0.1,1.8-0.1,2.7l-0.1,5.3l0.2,6.1c0,1.9,0.2,3.8,0.3,5.7
		c0.2,3.8,0.8,7.6,1.3,11.4c1.2,7.6,2.8,15.1,5.2,22.4c2.4,7.3,5.1,14.4,8.5,21.2c3.4,6.8,7.2,13.3,11.5,19.5
		c17.2,24.7,41.4,43.3,67.6,53.6c1.6,0.7,3.3,1.3,4.9,1.9c1.7,0.6,3.3,1.2,5,1.7c3.3,1,6.6,2,10,2.7c6.7,1.7,13.4,2.7,20,3.4
		c3.3,0.3,6.6,0.6,10,0.6c1.7,0,3.4,0.1,5,0.1c1.5,0,3.1-0.1,4.7-0.1l2.5-0.1l2.4-0.2c1.6-0.1,3.2-0.2,4.8-0.3
		c3.2-0.4,6.3-0.7,9.4-1.2c24.9-3.9,46.9-14.1,64.3-26.6c17.5-12.7,30.4-27.8,39.6-42.4c4.6-7.3,8.2-14.6,11.1-21.4
		c2.8-6.9,5.1-13.3,6.6-19.3c0.6-2.1,1-4.1,1.5-6.1H296.2z"/>
</g>
</svg>
