<?xml version="1.0" encoding="utf-8"?>
<!-- Generator: Adobe Illustrator 17.1.0, SVG Export Plug-In . SVG Version: 6.00 Build 0)  -->
<!DOCTYPE svg PUBLIC "-//W3C//DTD SVG 1.1//EN" "http://www.w3.org/Graphics/SVG/1.1/DTD/svg11.dtd">
<svg version="1.1" id="Layer_1" xmlns="http://www.w3.org/2000/svg" xmlns:xlink="http://www.w3.org/1999/xlink" x="0px" y="0px"
	 viewBox="0 0 307.3 153.9" enable-background="new 0 0 307.3 153.9" xml:space="preserve">
<g>
	<g>
		<path fill="#4D4D4D" d="M55.9,78.3l-0.3,3.8c-1.4,2.2-4.3,3.5-7.6,3.5c-5.6,0-9.1-3.3-9.1-8.6c0-5.4,3.5-8.6,9.1-8.6
			c2.3,0,4.7,0.6,6.4,1.7l0.6,3.9h-0.2c-0.8-3.4-3.4-4.7-6.8-4.7c-4.4,0-7.1,3-7.1,7.8c0,4.8,2.7,7.7,7.1,7.8c4.1,0,7.3-2,7.6-6.5
			L55.9,78.3z"/>
		<path fill="#4D4D4D" d="M73.7,68.7c3.5,0,5.6,1.7,5.6,4.5c0,2.3-1.8,4.3-4.3,4.5c0.6,0.3,1.5,1.3,2.1,2.2c0,0,1.3,1.7,2.4,3
			c1.1,1.3,1.9,2.1,3.4,2.1v0.3h-0.9c-3,0-4.2-1.4-5.1-2.4c-0.3-0.4-2.5-3.5-2.7-3.8c-0.7-0.9-1.7-1.9-2.8-1.9v-0.3c0,0,0.7,0,1.6,0
			c1.5,0,3.3-0.1,4-2.4c0.1-0.4,0.2-1,0.2-1.6c-0.1-2.1-1.4-3.3-3.7-3.4c-1.5-0.1-2.9,0-3.2,0v13.9c0,0.8,0.7,1.5,1.6,1.5h0.4l0,0.3
			h-5.6l0-0.3h0.4c0.9,0,1.5-0.6,1.6-1.5V70.4c0-0.8-0.7-1.4-1.6-1.4h-0.4l0-0.3H73.7z"/>
		<path fill="#4D4D4D" d="M103.5,85.2H92.3l0-0.3h0.4c0.9,0,1.6-0.6,1.6-1.5V70.4c0-0.8-0.7-1.4-1.6-1.4h-0.4l0-0.3h8
			c1.1,0,2.6-0.2,3.1-0.4v3.1l-0.3,0V71c0-0.8-0.5-1.4-1.4-1.4H96v7h4.7c0.8,0,1.1-0.5,1.1-1.2V75l0.3,0v3.9l-0.3,0v-0.3
			c0-0.6-0.3-1.1-1.1-1.2H96v7h4.3c2.6,0,3.6-1.3,4.4-3.1h0.3L103.5,85.2z"/>
		<path fill="#4D4D4D" d="M130.1,83.4c0.6,1.1,1.4,1.6,2.1,1.6h0.2v0.3h-5.7V85h0.2c0.6,0,1.3-0.6,1-1.7l-1.5-3.7h-7l-1.5,3.6
			c-0.4,1.1,0.3,1.7,0.9,1.7h0.2v0.3h-5.2V85h0.2c0.7,0,1.6-0.5,2.2-1.6l5.7-12.2c0,0,1-2.1,1.1-2.8h0.3L130.1,83.4z M126.1,78.8
			l-3.1-7.5l-3.2,7.5H126.1z"/>
		<path fill="#4D4D4D" d="M150.2,68.7c1.1,0,2.6-0.2,3.1-0.4v3.1l-0.3,0V71c0-0.8-0.5-1.4-1.4-1.4h-5.8v7h4.8c0.8,0,1.1-0.5,1.1-1.2
			V75l0.3,0v3.9l-0.3,0v-0.3c0-0.6-0.3-1.1-1.1-1.2h-4.8v6.1c0,0.8,0.7,1.5,1.6,1.5h0.4l0,0.3h-5.7l0-0.3h0.4c0.9,0,1.6-0.6,1.6-1.5
			V70.4c0-0.8-0.7-1.4-1.6-1.4h-0.4l0-0.3h3.8H150.2z"/>
		<path fill="#4D4D4D" d="M175.6,68.7c1.1,0,2.6-0.2,3.1-0.4v3.1l-0.3,0v-0.4c0-0.8-0.5-1.4-1.4-1.4h-5v14c0,0.8,0.7,1.5,1.6,1.5
			h0.3l0,0.3h-5.7l0-0.3h0.3c0.9,0,1.6-0.7,1.6-1.5V69.5h-5c-0.8,0-1.4,0.6-1.4,1.4v0.4l-0.3,0v-3.1c0.5,0.2,2,0.4,3.1,0.4H175.6z"
			/>
		<path fill="#4D4D4D" d="M200.1,85.2h-11.2l0-0.3h0.4c0.9,0,1.6-0.6,1.6-1.5V70.4c0-0.8-0.7-1.4-1.6-1.4h-0.4l0-0.3h8
			c1.1,0,2.6-0.2,3.1-0.4v3.1l-0.3,0V71c0-0.8-0.5-1.4-1.4-1.4h-5.7v7h4.7c0.8,0,1.1-0.5,1.1-1.2V75l0.3,0v3.9l-0.3,0v-0.3
			c0-0.6-0.3-1.1-1.1-1.2h-4.8v7h4.3c2.6,0,3.6-1.3,4.4-3.1h0.3L200.1,85.2z"/>
		<path fill="#4D4D4D" d="M218.8,68.7c3.5,0,5.6,1.7,5.6,4.5c0,2.3-1.8,4.3-4.3,4.5c0.6,0.3,1.5,1.3,2.1,2.2c0,0,1.3,1.7,2.4,3
			c1.1,1.3,1.9,2.1,3.4,2.1v0.3h-0.9c-3,0-4.2-1.4-5.1-2.4c-0.3-0.4-2.5-3.5-2.7-3.8c-0.7-0.9-1.7-1.9-2.8-1.9v-0.3c0,0,0.7,0,1.6,0
			c1.5,0,3.3-0.1,4-2.4c0.1-0.4,0.2-1,0.2-1.6c-0.1-2.1-1.4-3.3-3.7-3.4c-1.5-0.1-2.9,0-3.2,0v13.9c0,0.8,0.7,1.5,1.6,1.5h0.4l0,0.3
			h-5.6l0-0.3h0.4c0.9,0,1.5-0.6,1.6-1.5V70.4c0-0.8-0.7-1.4-1.6-1.4h-0.4l0-0.3H218.8z"/>
		<path fill="#4D4D4D" d="M237.4,85.2l0-0.3h0.4c1,0,1.8-0.7,1.9-1.5v-13c0-0.8-0.8-1.5-1.9-1.5h-0.4l0-0.3h6.2V69h-0.4
			c-1,0-1.8,0.6-1.9,1.4v13.1c0,0.8,0.9,1.5,1.9,1.5h0.4l0,0.3H237.4z"/>
		<path fill="#4D4D4D" d="M273.9,68.7l0,0.3h-0.5c-0.8,0-1.5,0.6-1.5,1.4v11.7c0,1.8,0.3,3.5,0.3,3.5h-0.3L257.6,72v11.5
			c0,0.8,0.7,1.4,1.5,1.4h0.5l0,0.3h-5.2l0-0.3h0.5c0.8,0,1.5-0.6,1.5-1.4V71.7c0-1.9-0.3-3.4-0.3-3.4l0.3,0l14.3,13.5V70.4
			c0-0.8-0.7-1.4-1.5-1.4h-0.5l0-0.3H273.9z"/>
		<path fill="#4D4D4D" d="M299.1,83.4c0.6,1.1,1.4,1.6,2.1,1.6h0.2v0.3h-5.7V85h0.2c0.6,0,1.3-0.6,1-1.7l-1.5-3.7h-7l-1.5,3.6
			c-0.4,1.1,0.3,1.7,0.9,1.7h0.2v0.3h-5.2V85h0.2c0.7,0,1.6-0.5,2.2-1.6l5.7-12.2c0,0,1-2.1,1.1-2.8h0.3L299.1,83.4z M295.2,78.8
			l-3.1-7.5l-3.2,7.5H295.2z"/>
	</g>
	<path fill="#C69C6D" d="M152.5,92.9c-0.2,1-0.5,1.9-0.8,3c-1.7,5.8-4.5,12.8-9.3,19.7c-4.8,6.9-11.5,13.9-20.3,19.3
		c-4.4,2.7-9.2,4.9-14.4,6.7c-5.2,1.7-10.8,2.7-16.5,3.1c-1.4,0.1-2.9,0.1-4.3,0.1c-0.7,0-1.5,0-2.2-0.1l-1.1,0l-1.1-0.1
		c-0.8,0-1.5-0.1-2.3-0.2c-0.8-0.1-1.4-0.2-2.2-0.3c-1.4-0.1-2.9-0.4-4.4-0.7c-2.9-0.6-5.9-1.3-8.7-2.3c-1.4-0.5-2.8-1.1-4.3-1.6
		l-2.1-0.9c-0.7-0.3-1.4-0.6-2.1-1c-10.9-5.5-20.6-14.1-27.3-24.8c-3.3-5.3-5.9-11.1-7.7-17.2l-0.6-2.3c-0.2-0.8-0.3-1.5-0.5-2.3
		L20.1,90l-0.2-1.2c-0.1-0.8-0.3-1.6-0.4-2.3c-0.2-1.6-0.4-3.1-0.5-4.7c-0.1-0.8-0.1-1.6-0.1-2.4l0-2.2l0.1-2.6c0-0.4,0-0.9,0-1.3
		l0.1-1.1c0.1-0.8,0.1-1.5,0.2-2.3l0.3-2.4c0.5-3.1,1.1-6.2,2-9.3c1.8-6.1,4.4-11.9,7.7-17.2c6.7-10.7,16.3-19.3,27.3-24.7
		c5.5-2.7,11.2-4.7,17.1-5.9c1.5-0.2,2.9-0.6,4.4-0.7c0.7-0.1,1.5-0.2,2.2-0.3c0.7-0.1,1.5-0.1,2.2-0.2l1-0.1l1.2,0
		c0.8,0,1.5,0,2.3,0c1.4,0,2.8,0,4.3,0.1c5.7,0.4,11.3,1.4,16.5,3.1c5.2,1.7,10.1,4,14.4,6.7c8.8,5.4,15.5,12.3,20.3,19.3
		c4.8,6.9,7.6,13.9,9.3,19.7c0.2,0.8,0.4,1.6,0.6,2.3h0.2c-0.2-0.8-0.4-1.6-0.6-2.4c-0.7-3-1.9-6.2-3.3-9.6c-1.4-3.4-3.2-7-5.5-10.6
		c-4.5-7.2-10.9-14.7-19.6-21C115,10.5,104.1,5.5,91.7,3.5c-1.5-0.3-3.2-0.4-4.7-0.6c-0.8,0-1.5-0.1-2.3-0.2l-1.1-0.1l-1.3,0
		c-0.8,0-1.6,0-2.4,0c-0.8,0-1.6,0-2.4,0.1c-1.6,0-3.3,0.2-4.9,0.3c-3.3,0.4-6.6,0.9-9.9,1.7c-1.7,0.4-3.3,0.9-5,1.4
		c-0.8,0.3-1.6,0.6-2.5,0.8c-0.8,0.3-1.6,0.6-2.4,0.9c-6.5,2.5-12.7,6.1-18.4,10.6c-5.7,4.5-10.8,9.9-15.1,16
		c-2.1,3.1-4,6.3-5.7,9.7c-1.7,3.4-3,6.9-4.2,10.5c-1.2,3.6-2,7.3-2.6,11.1c-0.2,1.9-0.5,3.7-0.6,5.8L6,72.8c0,0.5,0,0.9,0,1.3
		l-0.1,2.6l0.1,3c0,0.9,0.1,1.9,0.2,2.8c0.1,1.9,0.4,3.8,0.6,5.7c0.6,3.7,1.4,7.5,2.6,11.1c1.2,3.6,2.5,7.1,4.2,10.5
		c1.7,3.3,3.6,6.6,5.7,9.7c8.5,12.2,20.5,21.5,33.5,26.5c0.8,0.3,1.6,0.6,2.4,0.9c0.8,0.3,1.6,0.6,2.5,0.8c1.7,0.5,3.3,1,5,1.4
		c3.3,0.8,6.6,1.3,9.9,1.7c1.7,0.1,3.3,0.3,5,0.3c0.8,0,1.7,0.1,2.5,0.1c0.8,0,1.5,0,2.3,0l1.2,0l1.2-0.1c0.8-0.1,1.6-0.1,2.4-0.2
		c1.6-0.2,3.1-0.3,4.7-0.6c12.4-2,23.2-7,31.9-13.2c8.7-6.3,15.1-13.8,19.6-21c2.3-3.6,4.1-7.2,5.5-10.6c1.4-3.4,2.5-6.6,3.3-9.6
		c0.3-1,0.5-2.1,0.7-3H152.5z"/>
</g>
</svg>
